<svg width="101" height="35" viewBox="0 0 101 35" fill="none" xmlns="http://www.w3.org/2000/svg">
<path d="M16.985 26H20.153L11.87 3.131H8.405L0.089 26H3.257L5.105 20.885H15.137L16.985 26ZM14.279 18.443H5.963L10.121 6.827L14.279 18.443ZM26.7803 11.249V7.916H23.7773V34.58H26.7803V22.667C27.9023 24.515 30.2453 26.297 33.5453 26.297C38.3963 26.297 42.1253 22.502 42.1253 16.892C42.1253 11.249 38.3963 7.619 33.5453 7.619C30.2453 7.619 27.8693 9.335 26.7803 11.249ZM39.0563 16.892C39.0563 21.149 36.2513 23.657 32.9183 23.657C29.6513 23.657 26.7803 21.182 26.7803 16.925C26.7803 12.734 29.6513 10.226 32.9183 10.226C36.2513 10.226 39.0563 12.635 39.0563 16.892ZM49.0811 11.249V7.916H46.0781V34.58H49.0811V22.667C50.2031 24.515 52.5461 26.297 55.8461 26.297C60.6971 26.297 64.4261 22.502 64.4261 16.892C64.4261 11.249 60.6971 7.619 55.8461 7.619C52.5461 7.619 50.1701 9.335 49.0811 11.249ZM61.3571 16.892C61.3571 21.149 58.5521 23.657 55.2191 23.657C51.9521 23.657 49.0811 21.182 49.0811 16.925C49.0811 12.734 51.9521 10.226 55.2191 10.226C58.5521 10.226 61.3571 12.635 61.3571 16.892ZM68.3789 26H71.3819V1.58H68.3789V26ZM76.5 26H79.503V7.916H76.5V26ZM78.051 4.979C79.14 4.979 80.031 4.088 80.031 2.933C80.031 1.778 79.14 0.886999 78.051 0.886999C76.896 0.886999 76.005 1.778 76.005 2.933C76.005 4.088 76.896 4.979 78.051 4.979ZM97.8541 26H100.824V15.341C100.824 10.16 97.6231 7.586 93.4321 7.586C90.9901 7.586 88.8121 8.609 87.6241 10.49V7.916H84.6211V26H87.6241V16.001C87.6241 12.107 89.7361 10.193 92.8051 10.193C95.8411 10.193 97.8541 12.074 97.8541 15.77V26Z" fill="white"/>
</svg>
